<?xml version="1.0" encoding="UTF-8" standalone="no"?>
<!-- Created with Inkscape (http://www.inkscape.org/) -->

<svg
   width="32"
   height="32"
   viewBox="0 0 8.46656 8.46656"
   version="1.1"
   id="svg5"
   xmlns="http://www.w3.org/2000/svg"
   xmlns:svg="http://www.w3.org/2000/svg">
  <defs
     id="defs2" />
  <g
     id="layer1"
     transform="translate(-52.177654,-9.8086128)">
    <g
       id="XMLID_1_"
       transform="matrix(0.26458333,0,0,0.26458333,-92.710467,-79.145431)">
	
	
	
	
	
	
	
	
	
	
	
	
	
	
	
	
		
	
	
	
	
	
	
	
	
	
	
	
	
	
	
	
	<g
   id="g2348"
   transform="matrix(0.13031364,0,0,0.13031364,505.33316,333.70988)">
  <path
     id="XMLID_67_"
     style="fill:#44c2e4"
     d="m 548.388,161.774 c -0.951,-0.724 -1.644,-1.735 -1.976,-2.883 -5.093,-17.604 -21.464,-29.899 -39.811,-29.899 -3.379,0 -6.747,0.41 -10.009,1.219 -2.253,0.558 -4.613,-0.337 -5.928,-2.248 -8.563,-12.438 -22.674,-19.865 -37.747,-19.865 -11.462,0 -22.43,4.256 -30.883,11.983 -8.4,7.679 -13.62,18.118 -14.697,29.395 -0.186,1.95 -1.384,3.659 -3.153,4.5 -0.551,0.262 -1.106,0.547 -1.65,0.848 -0.465,0.257 -0.963,0.446 -1.482,0.562 -7.728,1.725 -14.748,6.068 -19.766,12.23 -5.157,6.332 -7.882,13.995 -7.882,22.162 0,19.437 15.903,35.249 35.45,35.249 h 118.007 c 19.547,0 35.45,-15.813 35.45,-35.249 -0.003,-11.06 -5.076,-21.267 -13.923,-28.004 z" />
  <path
     id="XMLID_65_"
     style="fill:#e6c705"
     d="m 373.61,134.208 c 0,6.955 2.568,13.519 7.154,18.576 4.748,-3.573 10.158,-6.239 15.915,-7.791 1.997,-12.709 8.252,-24.37 17.838,-33.134 0.45,-0.411 0.908,-0.812 1.369,-1.208 -4.335,-2.695 -9.342,-4.141 -14.579,-4.141 -15.272,0 -27.697,12.425 -27.697,27.698 z" />
  <path
     id="XMLID_55_"
     style="fill:#e6c705"
     d="m 401.308,91.627 c 3.076,0 5.57,-2.494 5.57,-5.57 v -15.67 c 0,-3.076 -2.494,-5.57 -5.57,-5.57 -3.076,0 -5.57,2.494 -5.57,5.57 v 15.671 c 0,3.075 2.494,5.569 5.57,5.569 z" />
  <path
     id="XMLID_54_"
     style="fill:#e6c705"
     d="m 372.409,95.293 c 1.032,1.787 2.904,2.786 4.829,2.786 0.945,0 1.902,-0.241 2.78,-0.747 2.664,-1.538 3.577,-4.944 2.039,-7.608 l -7.835,-13.572 c -1.538,-2.664 -4.945,-3.577 -7.608,-2.039 -2.664,1.538 -3.577,4.944 -2.039,7.609 z" />
  <path
     id="XMLID_53_"
     style="fill:#e6c705"
     d="m 343.252,107.121 13.571,7.836 c 0.877,0.507 1.835,0.747 2.78,0.747 1.925,0 3.797,-0.999 4.829,-2.786 1.538,-2.664 0.626,-6.07 -2.038,-7.608 l -13.571,-7.836 c -2.664,-1.538 -6.07,-0.626 -7.608,2.039 -1.54,2.663 -0.627,6.07 2.037,7.608 z" />
  <path
     id="XMLID_52_"
     style="fill:#e6c705"
     d="m 337.486,139.778 h 15.671 c 3.076,0 5.57,-2.494 5.57,-5.57 0,-3.076 -2.494,-5.57 -5.57,-5.57 h -15.671 c -3.076,0 -5.57,2.494 -5.57,5.57 0,3.076 2.494,5.57 5.57,5.57 z" />
  <path
     id="XMLID_51_"
     style="fill:#e6c705"
     d="m 364.432,155.498 c -1.538,-2.664 -4.945,-3.577 -7.608,-2.039 l -13.571,7.836 c -2.664,1.538 -3.577,4.945 -2.039,7.608 1.032,1.787 2.904,2.786 4.829,2.786 0.945,0 1.903,-0.241 2.78,-0.747 l 13.571,-7.836 c 2.663,-1.537 3.576,-4.944 2.038,-7.608 z" />
  <path
     id="XMLID_50_"
     style="fill:#e6c705"
     d="m 422.598,97.332 c 0.877,0.506 1.835,0.747 2.78,0.747 1.925,0 3.797,-0.999 4.829,-2.786 l 7.835,-13.572 c 1.538,-2.664 0.625,-6.07 -2.039,-7.609 -2.665,-1.538 -6.07,-0.625 -7.609,2.039 l -7.835,13.572 c -1.538,2.665 -0.625,6.071 2.039,7.609 z" />
</g>

	
	
	
	
	
	
	
	
	
	
	
	
	
	
	
	
	
	
	
	
	
	
	
	
	
	
	
	
	
	
	
	
	
	
	
	
	
	
	
	
	
	
	
	
	
	
	
	
</g>
  </g>
</svg>
